<?xml version="1.0" encoding="UTF-8"?>
<!DOCTYPE svg  PUBLIC '-//W3C//DTD SVG 20010904//EN'  'http://www.w3.org/TR/2001/REC-SVG-20010904/DTD/svg10.dtd'>
<svg width="940pt" height="580pt" version="1.0" viewBox="0 0 940 580" xmlns="http://www.w3.org/2000/svg">
<metadata>Created by potrace 1.15, written by Peter Selinger 2001-2017</metadata>
<g transform="translate(0 580) scale(.1 -.1)">
<path d="m6911 5666c-29-30-79-62-153-97-95-46-112-58-131-94-23-42-102-94-143-95-24 0-136 69-129 79 2 4-13 5-33 3-33-4-35-3-23 12 7 9 9 16 3 16-5 0-16-7-23-16-22-27-133-15-187 19-24 15-46 35-49 44-12 32-44 55-66 49-31-9-49-24-85-75-33-45-70-71-102-71-43 0-147-63-161-97-2-5-33-30-67-57-43-32-70-62-82-90-27-59-39-70-98-91-43-16-57-17-72-7-49 31-204-6-277-65-24-19-58-61-75-94-27-48-42-64-82-84-28-14-56-25-64-25s-39-18-70-39c-32-22-79-45-107-52-102-24-125-50-111-125 6-31 3-39-26-68-44-44-107-64-152-48-18 7-66 12-107 12-76-1-82-3-224-79-53-28-71-27-107 9-41 42-60 50-110 50-85-1-103-47-69-181 12-46 26-88 32-94 5-5 38-11 72-12 158-6 211-14 229-35 26-30 30-53 19-95-6-21-11-54-11-74 0-39 18-99 29-99 7 0 41-65 41-78 0-4-4-13-9-21-7-11-17-10-56 9-58 28-116 23-177-17-43-27-45-27-333-41-544-25-538-25-591-7-27 9-56 22-64 29-31 28-87 38-127 25-45-16-83-46-83-68 0-9-7-24-14-33-11-15-30-18-117-18-85 0-112-4-144-20-23-12-56-19-81-18-46 1-64-6-64-28 0-9 10-14 29-14 43 0 61-10 61-33 0-11 6-28 14-36 31-36 28-56-24-125-50-67-61-100-37-109 7-3-8-24-40-55-29-27-49-52-46-56 14-14 42-4 72 25 18 16 37 29 44 26 6-2 24-25 40-51 27-47 27-49 11-74-12-18-13-27-6-30 13-4 16-41 4-57-4-6-19-16-34-24-22-11-28-21-28-48 0-18 4-33 9-33 15 0 23 18 11 25-5 3-10 13-10 21s5 12 11 9c6-4 17 1 24 11 13 18 14 17 16-11 1-16 1-37 0-45-2-8-6-37-10-65-5-27-11-59-15-70-8-20-7-20 8-1 10 12 16 39 16 68 0 53 18 71 51 50 10-7 26-12 34-12 22 0 19-27-6-48-24-21-57-92-65-141s9-87 47-107c28-14 37-14 71-3 35 11 46 10 86-5 26-10 78-25 115-32 38-8 84-21 102-30 27-13 53-14 132-9 116 8 150 8 222-1 29-3 63-2 75 3 11 6 42 19 67 31 76 34 108 36 180 11 99-34 146-42 254-42 93-1 160 10 211 35 25 12 166 5 249-12 63-13 115-49 115-81 0-9-21-34-47-55-27-21-51-43-55-49-14-20-8-67 13-97 18-24 20-33 10-51-6-12-10-33-9-46 3-20-2-26-29-31-34-8-53-23-72-58-7-13-21-22-34-22-12 0-30-8-39-19-8-10-22-21-29-23-15-5-18-68-5-110 11-37-3-36-55 2-41 29-42 29-71 12-16-9-42-30-58-45-27-26-32-27-67-18-34 10-44 8-99-20-66-34-170-139-200-203-17-34-17-37 0-55 10-11 31-23 47-26 47-11 35-28-15-21-52 8-82-13-71-48 3-12 12-43 20-71 7-27 21-70 31-95 9-25 18-72 19-105 1-67 42-167 76-185 26-14 77 13 85 45 8 31 19 25 43-24 11-20 38-50 60-65 46-32 75-30 126 8 17 12 42 27 58 34 61 27 58 102-8 177-41 47-41 64 0 85 87 44 127 96 123 160l-3 44 69 1c46 0 71 4 73 13 7 18 58 14 76-6 10-10 17-33 17-51 0-17 7-48 15-68 8-19 15-61 15-92 0-60 33-236 48-255 5-6 17-42 26-81 10-38 31-91 47-118 16-26 29-50 29-53 0-4 15-27 34-53 31-42 34-53 39-136 4-82 2-95-21-142-24-48-25-54-11-89 8-21 26-45 40-53 37-21 87 1 105 46 8 18 16 33 19 33s28-22 56-50c28-27 59-50 69-50 21 0 70 37 70 53 0 7 14 24 30 39 19 16 30 36 30 52 0 15 6 26 13 26 23 0 87 79 88 108 0 15 4 36 8 47 10 26-12 97-44 139-41 54-33 128 22 208 14 21 23 44 20 52-7 18 9 32 50 40 49 11 65 44 57 119-6 61-5 63 35 119 23 31 41 63 41 71 0 9-11 28-24 44-22 26-23 36-21 118 2 50 6 102 10 117 9 35-24 95-71 127-18 13-34 30-34 37 0 24 33 15 67-16 49-46 76-53 160-39 70 11 75 11 96-10 18-16 36-21 75-21 33 0 66-7 89-20 24-13 57-20 89-20 61 0 80 16 99 88 7 28 20 61 29 73 9 13 16 34 16 47 0 12 12 33 26 45 19 16 27 36 31 69 5 39 13 54 54 94 27 27 49 55 49 64 0 8 14 35 30 59 17 24 30 51 30 60 0 22 70 147 114 205 54 71 47 101-35 145-89 48-61 99 143 268 92 76 115 110 123 183 10 80 22 114 55 149 36 37 39 80 9 123-19 26-20 35-11 65 9 28 8 45-3 77-20 56-19 69 12 119 33 55 54 69 123 78 47 7 59 13 87 47 32 39 99 82 128 82 8 0 39 20 69 45 31 25 61 45 68 45 6 0 55 45 109 100 53 55 110 105 126 111 15 6 71 19 123 29 52 11 113 29 135 40 28 14 59 20 106 20h66l15-39c12-30 25-44 53-55 21-9 44-16 52-16s29-11 45-26c23-19 40-24 67-22 36 3 36 3 39 56 3 51 2 54-47 106-28 29-51 58-51 65s-11 23-25 37c-44 44-48 59-24 109 12 25 24 45 28 45 3 0 24 16 45 35 22 19 45 35 51 35s21 13 33 29c20 28 23 29 62 19 36-10 44-8 61 9 19 18 19 25 9 89-6 38-14 92-17 119-3 28-10 56-16 64-19 23-93 49-158 57-48 5-63 11-66 25-3 11-10 19-15 19s-6-9-3-20c4-14 2-20-9-20-8 0-17 8-19 18-3 10-5 6-6-10 0-16-3-28-6-28-2 0-31 14-63 30-48 24-72 30-125 30-36 0-69 5-72 10-10 16-122 12-157-6-22-12-33-13-42-4-16 16 14 64 43 68 24 4 60 38 61 58 0 5 17 18 39 27 47 21 58 55 30 91-11 13-19 31-19 40 0 21-21 66-32 66-4 0-8 14-8 30 0 36-31 70-63 70-42 0-88-19-108-44-26-33-42-33-60 0-12 23-12 27 6 40 10 8 29 14 42 14 87 0 140 74 94 131-18 23-21 23-66 11-25-7-52-9-60-5-7 5-31 31-53 59-37 48-88 84-116 84-7 0-31-20-55-44zm23-1059c21-16 18-61-4-64-113-15-108-13-106-38 1-23 4-24 34-19 36 7 43-9 20-46-11-16-8-29 17-77 16-32 44-72 62-90 41-42 66-89 58-112-6-20-57-41-145-61-42-9-65-9-97-1-54 15-84 3-108-43-21-39-61-68-110-80-17-4-37-13-45-20s-35-21-60-32c-25-10-67-34-94-52s-56-32-65-31c-51 5-67-4-137-76-70-71-76-75-116-74-71 2-102-18-193-124-43-51-70-59-80-26l-7 21-22-23c-53-59-116-142-116-154 0-7-3-15-7-17-5-1-20-21-35-43-22-33-26-51-26-107-1-82-17-122-53-126-22-3-28 3-41 38-9 22-23 43-32 46-22 8-86-44-86-70 0-25-76-110-107-120-12-4-39-20-62-36-47-34-52-59-22-118 37-75 36-84-23-147-39-42-56-68-60-96-3-21-12-42-19-46-32-21-68-77-63-99 9-33-10-66-60-108l-44-37v-81c0-64-4-87-21-114-11-19-16-34-10-34 5 0 12 4 16 10 3 5 12 7 20 3 17-6 21-78 5-88-5-3-10-15-10-27 0-11-9-31-20-45-22-29-26-76-7-90 21-17 57-22 90-12 35 11 117-6 117-24 0-5 28-36 61-68 56-53 60-61 53-86-4-16-9-55-10-88 0-33-4-74-8-91-6-25-2-37 19-62 33-40 32-56-11-105-35-41-36-43-32-117l3-75-34-11c-47-15-81-47-81-76 0-13-6-32-14-43-21-31-46-112-48-156-1-30 6-50 33-87 28-39 34-56 34-97-1-60-27-108-72-135-19-11-35-30-39-47-4-15-15-37-26-48-10-11-25-29-32-39-19-29-58-14-90 34-24 37-31 41-63 38-37-3-48-14-58-60-6-30-32-37-53-16-17 17-15 42 8 83 16 28 20 54 20 119 0 92-11 135-46 183-13 17-24 36-24 40 0 5-16 33-35 63s-35 63-35 72-15 62-34 118c-26 75-37 126-41 198-4 53-11 111-16 127-5 17-11 49-13 73-3 26-15 56-30 77-34 44-34 91-1 139 28 41 31 72 10 100-9 12-11 25-5 40 4 12 6 34 3 49-7 35 12 35 51 2s70-32 106 5c16 16 33 30 37 30 17 1 55 40 51 52-3 8-9 5-17-10-6-12-19-22-27-22-9 0-25-11-36-25-35-45-53-48-100-19-24 15-46 32-50 37-4 8-15 7-33-1-36-17-53-2-58 51-3 31-4 28-3-12 1-53 2-55 33-63l32-8v-68c0-37 1-80 2-96 1-15-2-31-7-35-12-8-32-51-36-76-2-15-12-20-36-22-18-1-44-9-59-18-24-16-49-16-98 0-13 4-28-1-42-15-19-17-22-30-20-76 2-51 0-58-30-82-17-15-52-40-77-55-60-37-61-66-6-136 26-33 40-61 40-80 0-26-8-34-66-66l-65-37-33 25c-31 24-59 74-70 127-7 35-59 65-86 50-16-8-20-21-20-60 0-38-3-48-14-44-23 9-36 52-36 122-1 43-6 74-15 86-20 27-19 49 4 63 18 11 24 7 52-30 18-23 34-44 35-46 2-1 7 0 13 4 7 4-2 24-25 53-32 43-34 47-18 59 10 7 14 16 11 20-4 3-28-8-53-26s-47-32-48-30c-7 9-26 74-26 90s8 19 45 19c34 0 47 5 55 19 25 48 1 101-45 101-32 0-40 16-22 43 27 40 123 137 136 137 6 0 25 10 41 21 25 19 34 21 71 11 50-13 65-8 105 35 38 40 46 40 89 7 24-18 43-24 66-22 46 4 56 26 40 87-17 66-9 85 39 100 23 7 48 24 60 41 38 53 77 37 101-39l7-26 1 27c1 15-3 30-9 33-14 9-13 48 2 63 20 20 18 131-4 173-23 44-18 58 33 98 22 18 47 49 57 69 12 26 24 38 42 40 32 4 69 22 93 45 12 12 27 17 42 13 27-7 57 2 49 15-6 10-64 12-88 3-9-3-16-11-16-18 0-16-30-33-76-40-35-6-44-3-74 23-41 35-173 71-262 71-55 0-190-30-234-52-33-16-197 6-314 42-86 27-160 23-230-11-40-20-62-22-200-24-85-1-167-5-182-9-21-6-40-2-75 14-26 12-73 26-104 30-31 5-70 16-85 27-21 13-48 18-105 19-42 1-81 4-87 8-17 10-14 67 3 90 8 11 15 27 15 36s16 31 35 50c40 39 41 46 19 94-13 27-22 34-43 33-19-2-26 3-25 15 1 10-3 16-9 15-7-1-13 8-15 20-2 16 4 26 22 34 25 12 26 39 0 39-19 0-18 35 2 54 14 14 14 16 0 16-8 0-29 24-47 54-18 29-45 61-61 70-41 25-37 60 17 136 48 69 52 81 32 102-22 22-39 59-33 73 11 29 70 44 189 47 118 3 119 3 142 32 13 17 27 41 30 55 9 34 21 41 75 41 33 0 56-8 89-30 30-20 57-30 85-31 23-1 75-2 116-3s100 2 130 7c30 4 183 11 340 15l285 8 53 32c57 35 105 41 128 17 10-9 34-15 63-15 31 0 53 5 61 15 7 9 29 15 54 15 22 0 68 7 101 16s87 19 120 23c73 10 135 29 135 42 0 19 62 38 90 27 14-5 50-14 80-20 30-5 74-19 97-30 41-20 48-21 225-10 101 6 200 14 220 19 48 11 208 160 208 195 0 36 46 75 160 137 25 14 47 27 50 30 3 4 17 14 33 24 29 18 35 45 15 65-22 22 2 26 56 9 69-22 77-22 138 8 28 14 57 25 63 25s27 8 48 19c20 10 53 22 72 25 19 4 35 11 35 15 0 12 25 21 102 37 37 7 82 19 100 27 94 41 117 49 126 43 5-3 18 1 28 9s25 15 32 15c22 0 13-25-15-44-16-9-20-15-11-12s19 0 22-7c3-8 8-6 16 6 7 11 24 17 50 17 28 0 47 7 62 23 32 32 73 55 148 83 45 17 82 17 104 1z"/>
<path d="m8913 5392c-14-41-26-60-45-70-15-7-42-30-60-51-27-31-44-40-95-51-35-8-63-17-63-21 0-8 53-19 96-19 22 0 34-5 34-14 0-13 51-62 100-96 13-9 25-33 32-62 13-62 33-62 44-1 8 42 15 51 60 82 28 19 58 47 67 63 13 23 23 28 56 28 22 0 52 5 68 11 27 11 25 12-42 26-40 9-74 22-79 30-15 27-60 68-86 80-19 8-29 23-39 62-7 28-16 53-21 56-4 2-16-21-27-53zm111-117c23-20 29-34 30-68 1-56-22-90-73-107-54-17-113 1-147 45-32 42-30 73 7 118 29 35 33 37 92 37 52 0 67-4 91-25z"/>
<path d="m2350 4055v-85h54c75 0 109 36 71 74-9 9-11 17-5 21 17 11 11 54-9 65-11 5-40 10-65 10h-46v-85z"/>
<path d="m6550 2535c0-68 3-85 15-85 10 0 15 16 17 63l3 62 15-60c20-77 40-79 56-7 17 75 24 76 24 4 0-48 3-62 15-62s15 16 15 85c0 83 0 85-24 85-22 0-26-7-37-55-7-30-15-55-19-55s-13 25-20 55c-11 47-16 55-37 55-22 0-23-3-23-85z"/>
<path d="m7230 2535c0-69 3-85 15-85 11 0 15 12 16 43 1 76 14 84 27 18 8-40 18-61 27-61s19 21 27 61c13 66 26 58 27-18 1-31 5-43 16-43 12 0 15 16 15 85 0 84 0 85-25 85-21 0-27-7-40-55-9-30-18-55-20-55s-11 25-20 55c-13 48-19 55-40 55-25 0-25-1-25-85z"/>
<path d="m7610 2535c0-69 3-85 15-85 10 0 15 11 15 35 0 47 27 47 59 0 14-20 32-35 43-35 19 0 19 2-6 35l-27 34 21 21c25 25 25 35 0 60-15 15-33 20-70 20h-50v-85z"/>
<path d="m2190 2195v-85h46c25 0 54 5 65 10 23 13 25 55 3 68-14 8-14 10 0 21 39 33 4 71-65 71h-49v-85z"/>
<path d="m3210 2195v-85h45c59 0 95 32 95 85s-36 85-95 85h-45v-85z"/>
<path d="m25 1998c-3-7-4-454-3-993l3-980h985 985l3 993 2 992h-985c-779 0-987-3-990-12zm1933-985-3-958h-945-945l-3 958-2 957h950 950l-2-957z"/>
<path d="m553 1810c-59-34-68-60-30-85 21-13 24-24 25-81 0-55 4-69 21-81l21-14-20-29c-11-15-20-35-20-43 0-15-76-97-90-97-4 0-15-9-25-20-12-13-31-20-55-20-26 0-43-7-61-26-23-24-23-26-6-52 9-15 26-45 36-67l20-40-74-3c-69-3-76-5-95-32l-21-30 20-29c12-16 21-39 21-50 0-13 6-21 18-21 10 0 37-20 60-45 46-49 83-58 126-30 23 16 23 15 30-37 4-29 9-69 11-88 11-108 36-200 55-200 4 0 13-19 20-42 8-24 17-45 21-48 3-3 16-37 28-77 22-72 54-124 106-176 35-34 83-34 100 0 6 11 33 42 60 67 62 59 96 153 88 246l-6 59 37 15c20 8 41 27 48 41 7 15 28 35 47 45 20 10 63 45 96 77 59 57 83 73 135 92 14 5 31 22 39 37 7 16 16 35 20 43 4 7 30 22 59 33 50 19 52 21 52 58 0 28-7 47-25 66-29 31-32 56-9 75 13 10 20 10 44-4 15-9 42-17 59-17 30 0 43-21 22-34-24-15 15-76 49-76 11 0 20-6 20-14 0-21 17-29 46-22 21 6 24 12 24 56 0 38 5 52 21 63 19 14 34 54 44 113 7 47 24 63 68 66 40 3 42 4 39 33-2 17-10 44-17 60-8 17-15 39-17 50-3 11-10 18-19 16-8-2-31-7-52-12s-45-13-55-19c-9-5-29-11-43-14-15-3-54-32-87-65-78-74-119-85-161-40-43 44-81 34-81-23 0-25-4-28-31-28-17 0-39 5-50 11-26 13-109 30-177 34-76 5-149 57-112 80 5 3 10 14 10 24 0 15-22 33-119 98-2 1 6 14 17 28 16 19 19 32 13 48-7 17-4 29 10 46 22 27 18 54-14 89-21 23-51 29-62 12-9-15-46-12-65 5-22 20-127 75-142 75-7 0-37-14-65-30zm107-30c14-11 30-20 35-20 6 0 23-12 38-26 26-24 33-26 83-19 50 6 54 5 54-14 0-11-4-23-10-26-5-3-10-23-10-44 0-25-7-44-20-56-11-10-20-23-20-29 1-13 31-51 45-57 6-2 27-15 48-28 29-18 35-26 27-37-18-20-8-67 16-79 12-6 30-17 39-25 10-8 48-18 84-22 79-8 148-22 214-42 53-17 78-11 97 24 9 17 14 18 30 7 26-15 25-39 0-55-36-22-43-58-20-103 11-21 25-39 31-39s9-10 7-22c-2-16-15-27-44-38-54-20-72-36-76-67-2-14-10-29-18-33s-25-12-37-18c-13-7-34-12-47-12-19 0-26-7-31-29-3-16-17-37-30-45-13-9-33-25-43-37-11-11-35-28-53-37-19-9-43-31-54-48s-37-38-59-47l-39-17 6-67c4-47 1-77-8-98-8-16-18-46-22-65-6-21-18-39-31-45-12-5-22-13-22-16s-11-18-25-33-25-31-25-37c0-24-50-7-78 27-34 41-43 58-67 134-17 53-31 85-81 181-13 26-24 62-24 81s-4 38-9 43c-5 6-11 44-12 85-3 105-8 129-31 141-16 9-26 7-49-10-38-28-65-26-95 6l-24 26 22 11c16 8 23 20 23 41 0 30-1 30-55 30-42 0-55 3-55 15s16 16 75 18c78 3 100 13 100 43 0 20-37 96-51 105-5 3-9 14-9 25 0 16 7 19 44 19 36 0 47 5 60 25 9 14 22 25 29 25 17 0 107 100 107 120 0 9 11 29 25 44 31 34 32 51 1 71-27 18-38 64-25 108 6 22 4 32-12 48-25 25-24 33 9 46 39 15 44 15 72-7z"/>
<path d="m800 1045v-85h45c32 0 51 6 65 20s20 33 20 65-6 51-20 65-33 20-65 20h-45v-85z"/>
<path d="m881 302c-6-10-7-29-4-41 3-13-1-29-11-40s-16-31-14-48l3-28h95c83 1 95 3 98 18 5 23-73 124-109 143-37 18-46 18-58-4z"/>
<path d="m6830 1825v-75l303 2 302 3 3 73 3 72h-306-305v-75z"/>
<path d="m7894 1556c-15-11-19-27-19-71s4-60 19-71c11-8 25-14 31-14s20 6 31 14c15 11 19 27 19 71s-4 60-19 71c-11 8-25 14-31 14s-20-6-31-14z"/>
</g>
</svg>
